<svg height="512" viewBox="0 0 64 64" width="512" xmlns="http://www.w3.org/2000/svg"><g id="Twotone"><g id="Color_copy" data-name="Color copy"><g><path d="m18.789 50h-11.789v-33h-4v37h6.43a84.035 84.035 0 0 1 18.9 2.152 3 3 0 0 0 3.587-2.206 23.819 23.819 0 0 0 -13.128-3.946z" fill="#79bd9a"/><path d="m57 17v33h-11.789a23.819 23.819 0 0 0 -13.123 3.946 3 3 0 0 0 3.587 2.206 84.035 84.035 0 0 1 18.895-2.152h6.43v-37z" fill="#79bd9a"/><g fill="#cff09e"><path d="m42.758 46.129a6.037 6.037 0 0 1 -6.758-5.95v-26.829c-.055.035-.114.059-.168.1a8.606 8.606 0 0 0 -3.832 7.156v33.394a23.817 23.817 0 0 1 13.211-4h11.789v-4h-11.789a23.565 23.565 0 0 0 -2.453.129z"/><path d="m30 15.112v32.708a23.8 23.8 0 0 0 -11.211-2.82 6.788 6.788 0 0 1 -6.789-6.789v-26.211h-5v38h11.789a23.817 23.817 0 0 1 13.211 4v-33.394a8.592 8.592 0 0 0 -2-5.494z"/></g></g></g><g id="Stroke_Close_copy" data-name="Stroke Close copy"><g fill="#3b8686"><path d="m61 16h-3v-4a1 1 0 0 0 -1-1h-16.4a9.563 9.563 0 0 0 -8.6 5.364 9.563 9.563 0 0 0 -8.6-5.364h-16.4a1 1 0 0 0 -1 1v4h-3a1 1 0 0 0 -1 1v37a1 1 0 0 0 1 1h6.43a83.117 83.117 0 0 1 18.67 2.127 3.98 3.98 0 0 0 3.9-1.268 3.978 3.978 0 0 0 3.9 1.268 83.145 83.145 0 0 1 18.67-2.127h6.43a1 1 0 0 0 1-1v-37a1 1 0 0 0 -1-1zm-24.613-1.723a7.581 7.581 0 0 1 4.213-1.277h15.4v36h-10.789a24.727 24.727 0 0 0 -12.211 3.211v-31.606a7.591 7.591 0 0 1 3.387-6.328zm-28.387-1.277h15.4a7.605 7.605 0 0 1 7.6 7.605v31.606a24.724 24.724 0 0 0 -12.211-3.211h-10.789zm20.55 42.178a85.069 85.069 0 0 0 -19.12-2.178h-5.43v-35h2v32a1 1 0 0 0 1 1h11.789a22.732 22.732 0 0 1 11.863 3.344 2 2 0 0 1 -2.102.834zm31.45-2.178h-5.43a85.082 85.082 0 0 0 -19.12 2.178 1.992 1.992 0 0 1 -2.1-.834 22.732 22.732 0 0 1 11.861-3.344h11.789a1 1 0 0 0 1-1v-32h2z"/><path d="m12 20h11.4a7.576 7.576 0 0 1 4.218 1.277 1 1 0 1 0 1.11-1.664 9.579 9.579 0 0 0 -5.328-1.613h-11.4a1 1 0 0 0 0 2z"/><path d="m35.833 21.445a1 1 0 0 0 .554-.168 7.581 7.581 0 0 1 4.213-1.277h11.4a1 1 0 0 0 0-2h-11.4a9.581 9.581 0 0 0 -5.328 1.613 1 1 0 0 0 .556 1.832z"/><path d="m12 25h11.4a7.576 7.576 0 0 1 4.218 1.277 1 1 0 1 0 1.11-1.664 9.579 9.579 0 0 0 -5.328-1.613h-11.4a1 1 0 0 0 0 2z"/><path d="m35.833 26.445a1 1 0 0 0 .554-.168 7.581 7.581 0 0 1 4.213-1.277h11.4a1 1 0 0 0 0-2h-11.4a9.581 9.581 0 0 0 -5.328 1.613 1 1 0 0 0 .556 1.832z"/><path d="m12 30h11.4a7.576 7.576 0 0 1 4.218 1.277 1 1 0 1 0 1.11-1.664 9.579 9.579 0 0 0 -5.328-1.613h-11.4a1 1 0 0 0 0 2z"/><path d="m35.833 31.445a1 1 0 0 0 .554-.168 7.581 7.581 0 0 1 4.213-1.277h11.4a1 1 0 0 0 0-2h-11.4a9.581 9.581 0 0 0 -5.328 1.613 1 1 0 0 0 .556 1.832z"/><path d="m12 35h11.4a7.576 7.576 0 0 1 4.218 1.277 1 1 0 1 0 1.11-1.664 9.579 9.579 0 0 0 -5.328-1.613h-11.4a1 1 0 0 0 0 2z"/><path d="m35.833 36.445a1 1 0 0 0 .554-.168 7.581 7.581 0 0 1 4.213-1.277h11.4a1 1 0 0 0 0-2h-11.4a9.581 9.581 0 0 0 -5.328 1.613 1 1 0 0 0 .556 1.832z"/><path d="m12 40h11.4a7.576 7.576 0 0 1 4.218 1.277 1 1 0 1 0 1.11-1.664 9.579 9.579 0 0 0 -5.328-1.613h-11.4a1 1 0 0 0 0 2z"/><path d="m35.833 41.445a1 1 0 0 0 .554-.168 7.581 7.581 0 0 1 4.213-1.277h11.4a1 1 0 0 0 0-2h-11.4a9.581 9.581 0 0 0 -5.328 1.613 1 1 0 0 0 .556 1.832z"/><path d="m27.613 46.277a1 1 0 1 0 1.11-1.664 9.579 9.579 0 0 0 -5.323-1.613h-11.4a1 1 0 0 0 0 2h11.4a7.576 7.576 0 0 1 4.213 1.277z"/><path d="m35.833 46.445a1 1 0 0 0 .554-.168 7.581 7.581 0 0 1 4.213-1.277h11.4a1 1 0 0 0 0-2h-11.4a9.581 9.581 0 0 0 -5.328 1.613 1 1 0 0 0 .556 1.832z"/></g></g></g></svg>